<mxfile host="app.diagrams.net" modified="2023-09-07T17:25:56.256Z" agent="Mozilla/5.0 (Windows NT 10.0; Win64; x64) AppleWebKit/537.36 (KHTML, like Gecko) Chrome/114.0.0.0 Safari/537.36 OPR/100.0.0.0" etag="UZSpBaeWSE-YE9d7Yp8z" version="21.7.2" type="github">
  <diagram name="Страница — 1" id="tsVxFC9_q7xapw3J_Hjs">
    <mxGraphModel dx="3522" dy="1760" grid="0" gridSize="10" guides="1" tooltips="1" connect="1" arrows="1" fold="1" page="0" pageScale="1" pageWidth="827" pageHeight="1169" math="0" shadow="0">
      <root>
        <mxCell id="0" />
        <mxCell id="1" parent="0" />
        <mxCell id="fxfDu-sRvrEcrE2jMymL-13" style="edgeStyle=none;curved=1;rounded=0;orthogonalLoop=1;jettySize=auto;html=1;fontSize=12;startSize=8;endSize=8;" edge="1" parent="1" source="fxfDu-sRvrEcrE2jMymL-1" target="fxfDu-sRvrEcrE2jMymL-16">
          <mxGeometry relative="1" as="geometry">
            <mxPoint x="224" y="-19" as="targetPoint" />
          </mxGeometry>
        </mxCell>
        <mxCell id="fxfDu-sRvrEcrE2jMymL-17" style="edgeStyle=none;curved=1;rounded=0;orthogonalLoop=1;jettySize=auto;html=1;fontSize=12;startSize=8;endSize=8;" edge="1" parent="1" source="fxfDu-sRvrEcrE2jMymL-1" target="fxfDu-sRvrEcrE2jMymL-18">
          <mxGeometry relative="1" as="geometry">
            <mxPoint x="224" y="-20" as="targetPoint" />
          </mxGeometry>
        </mxCell>
        <mxCell id="fxfDu-sRvrEcrE2jMymL-19" style="edgeStyle=none;curved=1;rounded=0;orthogonalLoop=1;jettySize=auto;html=1;fontSize=12;startSize=8;endSize=8;" edge="1" parent="1" source="fxfDu-sRvrEcrE2jMymL-1" target="fxfDu-sRvrEcrE2jMymL-20">
          <mxGeometry relative="1" as="geometry">
            <mxPoint x="453" y="-28" as="targetPoint" />
          </mxGeometry>
        </mxCell>
        <mxCell id="fxfDu-sRvrEcrE2jMymL-1" value="Будівля&lt;br&gt;" style="rounded=0;whiteSpace=wrap;html=1;fontSize=16;" vertex="1" parent="1">
          <mxGeometry x="164" y="-172" width="120" height="60" as="geometry" />
        </mxCell>
        <mxCell id="fxfDu-sRvrEcrE2jMymL-21" style="edgeStyle=none;curved=1;rounded=0;orthogonalLoop=1;jettySize=auto;html=1;fontSize=12;startSize=8;endSize=8;" edge="1" parent="1" source="fxfDu-sRvrEcrE2jMymL-16" target="fxfDu-sRvrEcrE2jMymL-22">
          <mxGeometry relative="1" as="geometry">
            <mxPoint x="-42" y="106" as="targetPoint" />
          </mxGeometry>
        </mxCell>
        <mxCell id="fxfDu-sRvrEcrE2jMymL-23" style="edgeStyle=none;curved=1;rounded=0;orthogonalLoop=1;jettySize=auto;html=1;fontSize=12;startSize=8;endSize=8;" edge="1" parent="1" source="fxfDu-sRvrEcrE2jMymL-16" target="fxfDu-sRvrEcrE2jMymL-24">
          <mxGeometry relative="1" as="geometry">
            <mxPoint x="-42" y="81" as="targetPoint" />
          </mxGeometry>
        </mxCell>
        <mxCell id="fxfDu-sRvrEcrE2jMymL-25" style="edgeStyle=none;curved=1;rounded=0;orthogonalLoop=1;jettySize=auto;html=1;exitX=1;exitY=1;exitDx=0;exitDy=0;fontSize=12;startSize=8;endSize=8;" edge="1" parent="1" source="fxfDu-sRvrEcrE2jMymL-16" target="fxfDu-sRvrEcrE2jMymL-26">
          <mxGeometry relative="1" as="geometry">
            <mxPoint x="99" y="97" as="targetPoint" />
          </mxGeometry>
        </mxCell>
        <mxCell id="fxfDu-sRvrEcrE2jMymL-46" style="edgeStyle=none;curved=1;rounded=0;orthogonalLoop=1;jettySize=auto;html=1;fontSize=12;startSize=8;endSize=8;" edge="1" parent="1" source="fxfDu-sRvrEcrE2jMymL-16" target="fxfDu-sRvrEcrE2jMymL-47">
          <mxGeometry relative="1" as="geometry">
            <mxPoint x="-146" y="88" as="targetPoint" />
          </mxGeometry>
        </mxCell>
        <mxCell id="fxfDu-sRvrEcrE2jMymL-16" value="1 поверхова&lt;br&gt;" style="rounded=0;whiteSpace=wrap;html=1;fontSize=16;" vertex="1" parent="1">
          <mxGeometry x="-248" y="-26" width="120" height="60" as="geometry" />
        </mxCell>
        <mxCell id="fxfDu-sRvrEcrE2jMymL-31" style="edgeStyle=none;curved=1;rounded=0;orthogonalLoop=1;jettySize=auto;html=1;fontSize=12;startSize=8;endSize=8;" edge="1" parent="1" source="fxfDu-sRvrEcrE2jMymL-18" target="fxfDu-sRvrEcrE2jMymL-32">
          <mxGeometry relative="1" as="geometry">
            <mxPoint x="129" y="84" as="targetPoint" />
          </mxGeometry>
        </mxCell>
        <mxCell id="fxfDu-sRvrEcrE2jMymL-37" style="edgeStyle=none;curved=1;rounded=0;orthogonalLoop=1;jettySize=auto;html=1;exitX=0.75;exitY=1;exitDx=0;exitDy=0;fontSize=12;startSize=8;endSize=8;" edge="1" parent="1" source="fxfDu-sRvrEcrE2jMymL-18" target="fxfDu-sRvrEcrE2jMymL-38">
          <mxGeometry relative="1" as="geometry">
            <mxPoint x="300" y="82" as="targetPoint" />
          </mxGeometry>
        </mxCell>
        <mxCell id="fxfDu-sRvrEcrE2jMymL-18" value="2 поверхова" style="rounded=0;whiteSpace=wrap;html=1;fontSize=16;" vertex="1" parent="1">
          <mxGeometry x="164" y="-30" width="120" height="60" as="geometry" />
        </mxCell>
        <mxCell id="fxfDu-sRvrEcrE2jMymL-48" style="edgeStyle=none;curved=1;rounded=0;orthogonalLoop=1;jettySize=auto;html=1;exitX=0;exitY=1;exitDx=0;exitDy=0;fontSize=12;startSize=8;endSize=8;" edge="1" parent="1" source="fxfDu-sRvrEcrE2jMymL-20" target="fxfDu-sRvrEcrE2jMymL-49">
          <mxGeometry relative="1" as="geometry">
            <mxPoint x="678" y="-31" as="targetPoint" />
          </mxGeometry>
        </mxCell>
        <mxCell id="fxfDu-sRvrEcrE2jMymL-52" style="edgeStyle=none;curved=1;rounded=0;orthogonalLoop=1;jettySize=auto;html=1;exitX=0.5;exitY=1;exitDx=0;exitDy=0;fontSize=12;startSize=8;endSize=8;" edge="1" parent="1" source="fxfDu-sRvrEcrE2jMymL-20" target="fxfDu-sRvrEcrE2jMymL-53">
          <mxGeometry relative="1" as="geometry">
            <mxPoint x="939.666666666667" y="185" as="targetPoint" />
          </mxGeometry>
        </mxCell>
        <mxCell id="fxfDu-sRvrEcrE2jMymL-54" style="edgeStyle=none;curved=1;rounded=0;orthogonalLoop=1;jettySize=auto;html=1;exitX=1;exitY=1;exitDx=0;exitDy=0;fontSize=12;startSize=8;endSize=8;" edge="1" parent="1" source="fxfDu-sRvrEcrE2jMymL-20" target="fxfDu-sRvrEcrE2jMymL-55">
          <mxGeometry relative="1" as="geometry">
            <mxPoint x="1166.333333333334" y="158.33333333333348" as="targetPoint" />
          </mxGeometry>
        </mxCell>
        <mxCell id="fxfDu-sRvrEcrE2jMymL-20" value="Багато поверхова" style="rounded=0;whiteSpace=wrap;html=1;fontSize=16;" vertex="1" parent="1">
          <mxGeometry x="849" y="24" width="120" height="60" as="geometry" />
        </mxCell>
        <mxCell id="fxfDu-sRvrEcrE2jMymL-27" style="edgeStyle=none;curved=1;rounded=0;orthogonalLoop=1;jettySize=auto;html=1;fontSize=12;startSize=8;endSize=8;" edge="1" parent="1" source="fxfDu-sRvrEcrE2jMymL-22" target="fxfDu-sRvrEcrE2jMymL-28">
          <mxGeometry relative="1" as="geometry">
            <mxPoint x="-459" y="203" as="targetPoint" />
          </mxGeometry>
        </mxCell>
        <mxCell id="fxfDu-sRvrEcrE2jMymL-29" style="edgeStyle=none;curved=1;rounded=0;orthogonalLoop=1;jettySize=auto;html=1;fontSize=12;startSize=8;endSize=8;" edge="1" parent="1" source="fxfDu-sRvrEcrE2jMymL-22" target="fxfDu-sRvrEcrE2jMymL-30">
          <mxGeometry relative="1" as="geometry">
            <mxPoint x="-232" y="183" as="targetPoint" />
          </mxGeometry>
        </mxCell>
        <mxCell id="fxfDu-sRvrEcrE2jMymL-22" value="Сільська хата" style="rounded=0;whiteSpace=wrap;html=1;fontSize=16;" vertex="1" parent="1">
          <mxGeometry x="-519" y="89" width="120" height="60" as="geometry" />
        </mxCell>
        <mxCell id="fxfDu-sRvrEcrE2jMymL-24" value="Сільская лікарня(дитяча і доросла)" style="rounded=0;whiteSpace=wrap;html=1;fontSize=16;" vertex="1" parent="1">
          <mxGeometry x="-354" y="89" width="120" height="60" as="geometry" />
        </mxCell>
        <mxCell id="fxfDu-sRvrEcrE2jMymL-26" value="Державна або частна лікарня для тварин&amp;nbsp;" style="rounded=0;whiteSpace=wrap;html=1;fontSize=16;" vertex="1" parent="1">
          <mxGeometry x="-75" y="89" width="120" height="60" as="geometry" />
        </mxCell>
        <mxCell id="fxfDu-sRvrEcrE2jMymL-28" value="С огородом&amp;nbsp;" style="rounded=0;whiteSpace=wrap;html=1;fontSize=16;" vertex="1" parent="1">
          <mxGeometry x="-644" y="225" width="120" height="60" as="geometry" />
        </mxCell>
        <mxCell id="fxfDu-sRvrEcrE2jMymL-30" value="Без огорода" style="rounded=0;whiteSpace=wrap;html=1;fontSize=16;" vertex="1" parent="1">
          <mxGeometry x="-443" y="228" width="120" height="60" as="geometry" />
        </mxCell>
        <mxCell id="fxfDu-sRvrEcrE2jMymL-33" style="edgeStyle=none;curved=1;rounded=0;orthogonalLoop=1;jettySize=auto;html=1;fontSize=12;startSize=8;endSize=8;" edge="1" parent="1" source="fxfDu-sRvrEcrE2jMymL-32" target="fxfDu-sRvrEcrE2jMymL-34">
          <mxGeometry relative="1" as="geometry">
            <mxPoint x="133" y="167" as="targetPoint" />
          </mxGeometry>
        </mxCell>
        <mxCell id="fxfDu-sRvrEcrE2jMymL-35" style="edgeStyle=none;curved=1;rounded=0;orthogonalLoop=1;jettySize=auto;html=1;exitX=0.75;exitY=1;exitDx=0;exitDy=0;fontSize=12;startSize=8;endSize=8;" edge="1" parent="1" source="fxfDu-sRvrEcrE2jMymL-32" target="fxfDu-sRvrEcrE2jMymL-36">
          <mxGeometry relative="1" as="geometry">
            <mxPoint x="206" y="170" as="targetPoint" />
          </mxGeometry>
        </mxCell>
        <mxCell id="fxfDu-sRvrEcrE2jMymL-32" value="Верховна рада" style="rounded=0;whiteSpace=wrap;html=1;fontSize=16;" vertex="1" parent="1">
          <mxGeometry x="73" y="75" width="120" height="60" as="geometry" />
        </mxCell>
        <mxCell id="fxfDu-sRvrEcrE2jMymL-34" value="Сельска рада" style="rounded=0;whiteSpace=wrap;html=1;fontSize=16;" vertex="1" parent="1">
          <mxGeometry x="-6" y="165" width="120" height="60" as="geometry" />
        </mxCell>
        <mxCell id="fxfDu-sRvrEcrE2jMymL-36" value="Міська рада" style="rounded=0;whiteSpace=wrap;html=1;fontSize=16;" vertex="1" parent="1">
          <mxGeometry x="153" y="165" width="120" height="60" as="geometry" />
        </mxCell>
        <mxCell id="fxfDu-sRvrEcrE2jMymL-39" style="edgeStyle=none;curved=1;rounded=0;orthogonalLoop=1;jettySize=auto;html=1;fontSize=12;startSize=8;endSize=8;" edge="1" parent="1" source="fxfDu-sRvrEcrE2jMymL-38" target="fxfDu-sRvrEcrE2jMymL-40">
          <mxGeometry relative="1" as="geometry">
            <mxPoint x="319" y="175" as="targetPoint" />
          </mxGeometry>
        </mxCell>
        <mxCell id="fxfDu-sRvrEcrE2jMymL-41" style="edgeStyle=none;curved=1;rounded=0;orthogonalLoop=1;jettySize=auto;html=1;fontSize=12;startSize=8;endSize=8;" edge="1" parent="1" source="fxfDu-sRvrEcrE2jMymL-38" target="fxfDu-sRvrEcrE2jMymL-42">
          <mxGeometry relative="1" as="geometry">
            <mxPoint x="488" y="183" as="targetPoint" />
          </mxGeometry>
        </mxCell>
        <mxCell id="fxfDu-sRvrEcrE2jMymL-43" style="edgeStyle=none;curved=1;rounded=0;orthogonalLoop=1;jettySize=auto;html=1;exitX=1;exitY=1;exitDx=0;exitDy=0;fontSize=12;startSize=8;endSize=8;" edge="1" parent="1" source="fxfDu-sRvrEcrE2jMymL-38" target="fxfDu-sRvrEcrE2jMymL-44">
          <mxGeometry relative="1" as="geometry">
            <mxPoint x="658" y="163" as="targetPoint" />
          </mxGeometry>
        </mxCell>
        <mxCell id="fxfDu-sRvrEcrE2jMymL-38" value="Лікарні" style="rounded=0;whiteSpace=wrap;html=1;fontSize=16;" vertex="1" parent="1">
          <mxGeometry x="406" y="60" width="140" height="45" as="geometry" />
        </mxCell>
        <mxCell id="fxfDu-sRvrEcrE2jMymL-40" value="Частна&amp;nbsp;" style="rounded=0;whiteSpace=wrap;html=1;fontSize=16;" vertex="1" parent="1">
          <mxGeometry x="293" y="165" width="120" height="60" as="geometry" />
        </mxCell>
        <mxCell id="fxfDu-sRvrEcrE2jMymL-42" value="Державна" style="rounded=0;whiteSpace=wrap;html=1;fontSize=16;" vertex="1" parent="1">
          <mxGeometry x="433" y="165" width="120" height="60" as="geometry" />
        </mxCell>
        <mxCell id="fxfDu-sRvrEcrE2jMymL-44" value="Сільска" style="rounded=0;whiteSpace=wrap;html=1;fontSize=16;" vertex="1" parent="1">
          <mxGeometry x="596" y="168" width="120" height="60" as="geometry" />
        </mxCell>
        <mxCell id="fxfDu-sRvrEcrE2jMymL-47" value="Мобільна лікарня" style="rounded=0;whiteSpace=wrap;html=1;fontSize=16;" vertex="1" parent="1">
          <mxGeometry x="-213" y="89" width="120" height="60" as="geometry" />
        </mxCell>
        <mxCell id="fxfDu-sRvrEcrE2jMymL-60" style="edgeStyle=none;curved=1;rounded=0;orthogonalLoop=1;jettySize=auto;html=1;exitX=0;exitY=1;exitDx=0;exitDy=0;fontSize=12;startSize=8;endSize=8;" edge="1" parent="1" source="fxfDu-sRvrEcrE2jMymL-49" target="fxfDu-sRvrEcrE2jMymL-61">
          <mxGeometry relative="1" as="geometry">
            <mxPoint x="693.1176470588234" y="283.52941176470586" as="targetPoint" />
          </mxGeometry>
        </mxCell>
        <mxCell id="fxfDu-sRvrEcrE2jMymL-62" style="edgeStyle=none;curved=1;rounded=0;orthogonalLoop=1;jettySize=auto;html=1;exitX=0.5;exitY=1;exitDx=0;exitDy=0;fontSize=12;startSize=8;endSize=8;" edge="1" parent="1" source="fxfDu-sRvrEcrE2jMymL-49" target="fxfDu-sRvrEcrE2jMymL-63">
          <mxGeometry relative="1" as="geometry">
            <mxPoint x="856.6470588235293" y="276.47058823529414" as="targetPoint" />
          </mxGeometry>
        </mxCell>
        <mxCell id="fxfDu-sRvrEcrE2jMymL-49" value="Нового покоління&amp;nbsp;" style="rounded=0;whiteSpace=wrap;html=1;fontSize=16;" vertex="1" parent="1">
          <mxGeometry x="759" y="168" width="120" height="60" as="geometry" />
        </mxCell>
        <mxCell id="fxfDu-sRvrEcrE2jMymL-53" value="Буш халіфа" style="rounded=0;whiteSpace=wrap;html=1;fontSize=16;" vertex="1" parent="1">
          <mxGeometry x="907.996666666667" y="168" width="120" height="60" as="geometry" />
        </mxCell>
        <mxCell id="fxfDu-sRvrEcrE2jMymL-56" style="edgeStyle=none;curved=1;rounded=0;orthogonalLoop=1;jettySize=auto;html=1;exitX=0;exitY=1;exitDx=0;exitDy=0;fontSize=12;startSize=8;endSize=8;" edge="1" parent="1" source="fxfDu-sRvrEcrE2jMymL-55" target="fxfDu-sRvrEcrE2jMymL-57">
          <mxGeometry relative="1" as="geometry">
            <mxPoint x="1016.3333333333339" y="300" as="targetPoint" />
          </mxGeometry>
        </mxCell>
        <mxCell id="fxfDu-sRvrEcrE2jMymL-58" style="edgeStyle=none;curved=1;rounded=0;orthogonalLoop=1;jettySize=auto;html=1;exitX=1;exitY=1;exitDx=0;exitDy=0;fontSize=12;startSize=8;endSize=8;" edge="1" parent="1" source="fxfDu-sRvrEcrE2jMymL-55" target="fxfDu-sRvrEcrE2jMymL-59">
          <mxGeometry relative="1" as="geometry">
            <mxPoint x="1237" y="272.66666666666674" as="targetPoint" />
          </mxGeometry>
        </mxCell>
        <mxCell id="fxfDu-sRvrEcrE2jMymL-55" value="Будівлі 90 годів" style="rounded=0;whiteSpace=wrap;html=1;fontSize=16;" vertex="1" parent="1">
          <mxGeometry x="1072.003333333334" y="168.0033333333335" width="120" height="60" as="geometry" />
        </mxCell>
        <mxCell id="fxfDu-sRvrEcrE2jMymL-57" value="9 поверхова" style="rounded=0;whiteSpace=wrap;html=1;fontSize=16;" vertex="1" parent="1">
          <mxGeometry x="976.0033333333339" y="267" width="120" height="60" as="geometry" />
        </mxCell>
        <mxCell id="fxfDu-sRvrEcrE2jMymL-59" value="12 поверхова" style="rounded=0;whiteSpace=wrap;html=1;fontSize=16;" vertex="1" parent="1">
          <mxGeometry x="1178" y="266.9966666666667" width="120" height="60" as="geometry" />
        </mxCell>
        <mxCell id="fxfDu-sRvrEcrE2jMymL-61" value="Німецька лікарня" style="rounded=0;whiteSpace=wrap;html=1;fontSize=16;" vertex="1" parent="1">
          <mxGeometry x="635" y="267" width="120.94" height="60.47" as="geometry" />
        </mxCell>
        <mxCell id="fxfDu-sRvrEcrE2jMymL-63" value="Панорама" style="rounded=0;whiteSpace=wrap;html=1;fontSize=16;" vertex="1" parent="1">
          <mxGeometry x="797.9970588235293" y="267.47058823529414" width="120" height="60" as="geometry" />
        </mxCell>
      </root>
    </mxGraphModel>
  </diagram>
</mxfile>
